<?xml version="1.0" standalone="no"?>
<!DOCTYPE svg PUBLIC "-//W3C//DTD SVG 20010904//EN"
 "http://www.w3.org/TR/2001/REC-SVG-20010904/DTD/svg10.dtd">
<svg version="1.0" xmlns="http://www.w3.org/2000/svg"
 width="352.000000pt" height="419.000000pt" viewBox="0 0 352.000000 419.000000"
 preserveAspectRatio="xMidYMid meet">
<metadata>
Created by potrace 1.16, written by Peter Selinger 2001-2019
</metadata>
<g transform="translate(0.000000,419.000000) scale(0.100000,-0.100000)"
fill="#0C1A50" stroke="none">

<path d="M3395 4164 c-16 -24 -18 -78 -24 -598 l-6 -571 -59 0 c-83 0 -83 -18
-1 -55 59 -27 66 -32 60 -52 -12 -39 -43 -82 -84 -120 -39 -35 -40 -37 -35
-89 7 -72 14 -78 72 -55 26 9 72 23 102 30 49 10 57 15 74 50 17 35 18 48 9
120 -8 66 -7 84 4 97 20 23 6 68 -23 79 -23 9 -24 14 -24 102 0 176 -12 783
-19 932 -6 157 -14 178 -46 130z M1906 3798 c-42 -236 -136 -626 -162 -665
-15 -23 -17 -24 -364 -128 -182 -55 -248 -81 -234 -95 6 -6 77 -26 159 -46
366 -89 360 -87 364 -114 4 -31 -19 -161 -32 -177 -6 -9 -38 -13 -93 -13 -60
0 -109 -7 -170 -25 -47 -14 -108 -25 -134 -25 -66 0 -186 33 -315 86 -199 83
-273 105 -368 111 -101 7 -101 7 -66 -93 80 -231 135 -567 110 -674 -5 -25 -7
-48 -3 -52 4 -4 44 -2 90 3 85 9 126 22 429 128 95 33 203 67 240 76 38 9 76
18 86 21 26 8 54 -65 62 -166 10 -123 -10 -306 -65 -600 -5 -25 -16 -83 -24
-130 -34 -180 -208 -848 -286 -1100 -11 -36 -20 -72 -20 -81 0 -16 49 -17 600
-17 330 -1 604 -3 609 -6 15 -10 573 -8 583 2 6 6 3 24 -7 48 -101 235 -280
740 -385 1084 -17 58 -36 120 -42 139 -34 110 -95 433 -108 574 -14 139 -8
301 12 324 18 22 62 10 293 -82 263 -105 371 -137 538 -159 49 -6 52 3 38 102
-6 42 -16 192 -21 332 -13 296 -19 392 -26 399 -8 8 -68 -17 -251 -105 -96
-46 -180 -84 -187 -84 -6 0 -16 -4 -21 -8 -23 -21 -160 -62 -203 -62 -63 0
-251 45 -271 64 -14 14 -13 17 2 28 15 12 16 22 5 106 -7 56 -8 96 -2 101 5 4
61 20 124 35 159 38 395 135 395 163 0 4 -16 13 -35 20 -61 19 -376 78 -477
89 -38 4 -68 13 -77 23 -14 15 -42 98 -101 296 -98 332 -141 455 -160 455 -7
0 -19 -41 -29 -102z m176 -1215 c44 -57 47 -67 13 -59 -30 8 -32 -6 -6 -42 24
-35 81 -148 81 -162 0 -6 -8 -10 -17 -8 -21 4 -21 -2 2 -130 19 -101 16 -122
-16 -122 -18 0 -20 -4 -15 -37 9 -59 12 -270 3 -279 -4 -4 -21 5 -37 21 -34
32 -29 40 -60 -97 -22 -101 -42 -126 -53 -68 -9 40 -25 38 -33 -5 -11 -60 -31
-41 -53 51 -11 47 -22 89 -25 92 -3 3 -14 -2 -25 -12 -32 -29 -42 0 -48 149
-3 74 -9 135 -12 135 -3 0 -14 -14 -23 -30 -21 -38 -39 -39 -33 -2 3 15 14 82
25 149 11 67 23 129 27 138 5 14 2 16 -17 10 -17 -5 -22 -4 -18 6 3 8 13 37
22 64 9 28 34 80 55 117 40 68 42 85 11 68 -28 -15 -31 0 -8 34 50 73 52 74
141 71 l82 -3 37 -49z M110 3729 c0 -6 7 -38 15 -71 9 -33 15 -88 13 -126 -3
-60 -5 -67 -25 -70 -29 -4 -47 31 -67 130 -9 43 -16 80 -16 83 0 3 -4 5 -10 5
-16 0 -23 -70 -11 -128 11 -54 30 -90 85 -157 20 -25 34 -77 81 -312 l56 -282
-40 -39 c-33 -31 -41 -46 -41 -74 0 -79 55 -193 103 -215 20 -9 25 -26 45
-159 24 -153 31 -201 103 -649 22 -143 45 -285 50 -315 40 -256 103 -648 129
-800 17 -102 39 -234 48 -295 17 -99 21 -110 40 -113 14 -2 25 3 28 13 6 16 3
41 -31 240 -13 75 -36 222 -71 460 -8 55 -19 123 -24 150 -5 28 -25 154 -45
280 -19 127 -46 298 -59 380 -14 83 -30 179 -35 215 -5 36 -28 180 -50 320
-23 140 -41 258 -41 262 0 4 27 25 59 48 33 22 62 44 65 48 8 13 -32 112 -60
148 -13 18 -43 42 -68 53 -55 27 -63 36 -71 86 -4 22 -17 94 -30 160 -75 381
-75 379 -49 466 22 72 14 155 -20 213 -24 42 -56 67 -56 45z"/>
</g>
</svg>
